<?xml version="1.0" ?><svg id="Multicolor" viewBox="0 0 100 112" xmlns="http://www.w3.org/2000/svg" xmlns:xlink="http://www.w3.org/1999/xlink"><defs><style>.cls-1,.cls-11,.cls-12,.cls-4{fill:none;}.cls-2{fill:#fff0ed;}.cls-3{clip-path:url(#clip-path);}.cls-11,.cls-12,.cls-13,.cls-4{stroke:#45413c;}.cls-12,.cls-13,.cls-4{stroke-linejoin:round;}.cls-5{fill:#ff6242;}.cls-6{fill:#ff8a14;}.cls-7{fill:#ffe500;}.cls-8{fill:#6dd627;}.cls-9{fill:#00b8f0;}.cls-10{fill:#9f5ae5;}.cls-11{stroke-miterlimit:10;}.cls-12,.cls-13{stroke-linecap:round;}.cls-13{fill:#ffcebf;}</style><clipPath id="clip-path"><circle class="cls-1" cx="49.949" cy="56.002" r="40"/></clipPath></defs><title/><g id="Scene"><g data-name="New Symbol 1" id="New_Symbol_1-72"><circle class="cls-2" cx="49.949" cy="56.018" r="40"/></g><g class="cls-3"><path class="cls-4" d="M67.54,22.741a3.761,3.761,0,0,0-4.571,2.714L56.046,52.614h-.34L51.919,26.1a3.758,3.758,0,1,0-7.441,1.063l2.955,20.691L32.8,50.735V62.011c0,9.681,3.759,11.378,3.759,16.913v26.088H58.174V86.441A5.722,5.722,0,0,1,60.408,81.9l2.464-1.952.284-24.8,7.1-27.842A3.759,3.759,0,0,0,67.54,22.741Z"/><path class="cls-5" d="M51.919,26.1a3.758,3.758,0,0,0-7.441,1.063L46.1,38.5h7.593Z"/><path class="cls-5" d="M67.54,22.741a3.76,3.76,0,0,0-4.571,2.714L59.644,38.5H67.4l2.852-11.187A3.76,3.76,0,0,0,67.54,22.741Z"/><polygon class="cls-6" points="53.689 38.499 46.096 38.499 47.433 47.857 39.089 49.499 55.26 49.499 53.689 38.499"/><polygon class="cls-6" points="56.841 49.499 64.597 49.499 67.402 38.499 59.644 38.499 56.841 49.499"/><polygon class="cls-7" points="56.046 52.614 55.706 52.614 55.26 49.499 39.089 49.499 32.804 50.735 32.804 60.499 63.094 60.499 63.156 55.154 64.597 49.499 56.841 49.499 56.046 52.614"/><path class="cls-8" d="M32.8,62.011A24.482,24.482,0,0,0,34.476,71.5H62.969l.125-11H32.8Z"/><path class="cls-9" d="M36.563,78.924V82.5H59.748a5.765,5.765,0,0,1,.66-.6l2.464-1.951.1-8.453H34.476C35.479,74.087,36.563,75.952,36.563,78.924Z"/><path class="cls-10" d="M59.748,82.5H36.563V96H58.174V86.441A5.722,5.722,0,0,1,59.748,82.5Z"/><path class="cls-4" d="M67.54,22.741a3.761,3.761,0,0,0-4.571,2.714L56.046,52.614h-.34L51.919,26.1a3.758,3.758,0,1,0-7.441,1.063l2.955,20.691L32.8,50.735V62.011c0,9.681,3.759,11.378,3.759,16.913v26.088H58.174V86.441A5.722,5.722,0,0,1,60.408,81.9l2.464-1.952.284-24.8,7.1-27.842A3.759,3.759,0,0,0,67.54,22.741Z"/><path class="cls-6" d="M47.255,46.549a3.759,3.759,0,0,0-7.433,1.129L40.1,49.5h7.6Z"/><path class="cls-7" d="M40.1,49.536l1.128,7.432h0l.423,2.785a3.736,3.736,0,0,0,.192.745H48.9a3.752,3.752,0,0,0,.192-1.873L47.7,49.5H40.1l.006.036Z"/><path class="cls-8" d="M45.936,62.906A3.757,3.757,0,0,0,48.9,60.5H41.848A3.758,3.758,0,0,0,45.936,62.906Z"/><path class="cls-6" d="M35.825,46.384A3.759,3.759,0,0,0,32.678,49.5H40.1A3.759,3.759,0,0,0,35.825,46.384Z"/><path class="cls-7" d="M32.673,50.664,33.8,58.1a3.742,3.742,0,0,0,1.409,2.4h4.614a3.756,3.756,0,0,0,1.409-3.53L40.1,49.535,40.1,49.5H32.678A3.728,3.728,0,0,0,32.673,50.664Z"/><path class="cls-8" d="M38.081,61.248a3.742,3.742,0,0,0,1.743-.749H35.21A3.749,3.749,0,0,0,38.081,61.248Z"/><path class="cls-11" d="M45.936,62.906a3.758,3.758,0,0,1-4.28-3.152L39.823,47.678a3.758,3.758,0,0,1,7.431-1.129l1.834,12.077A3.758,3.758,0,0,1,45.936,62.906Z"/><path class="cls-11" d="M38.081,61.248A3.759,3.759,0,0,1,33.8,58.1l-1.128-7.432A3.759,3.759,0,0,1,40.1,49.536l1.128,7.432A3.76,3.76,0,0,1,38.081,61.248Z"/><path class="cls-7" d="M64.973,56.255h-7.9a3.759,3.759,0,0,0-3.758,3.759,3.7,3.7,0,0,0,.031.485H70.44A5.644,5.644,0,0,0,64.973,56.255Z"/><path class="cls-8" d="M57.077,63.75h6.3A13.034,13.034,0,0,0,51.635,71.5H70.128a11.238,11.238,0,0,0,.486-3.249V61.9a5.654,5.654,0,0,0-.174-1.4H53.35A3.743,3.743,0,0,0,57.077,63.75Z"/><path class="cls-9" d="M50.657,76.144v2.819L54.192,82.5h5.593a5.789,5.789,0,0,1,.623-.556l5.213-4.011A12.94,12.94,0,0,0,70.128,71.5H51.635A11.618,11.618,0,0,0,50.657,76.144Z"/><path class="cls-10" d="M58.174,86.48A5.725,5.725,0,0,1,59.785,82.5H54.192Z"/><path class="cls-12" d="M58.174,86.48a5.725,5.725,0,0,1,2.234-4.537l5.213-4.01a12.439,12.439,0,0,0,4.994-9.683V61.9a5.642,5.642,0,0,0-5.642-5.642h-7.9a3.748,3.748,0,1,0,0,7.495h6.3c-6.747,0-12.72,5.648-12.72,12.394v2.819"/><line class="cls-13" x1="63.369" x2="65.333" y1="63.751" y2="63.751"/></g></g></svg>