<?xml version="1.0" ?><!DOCTYPE svg  PUBLIC '-//W3C//DTD SVG 1.1//EN'  'http://www.w3.org/Graphics/SVG/1.1/DTD/svg11.dtd'><svg enable-background="new 0 0 64 64" height="64px" id="Layer_1" version="1.1" viewBox="0 0 64 64" width="64px" xml:space="preserve" xmlns="http://www.w3.org/2000/svg" xmlns:xlink="http://www.w3.org/1999/xlink"><g><g><path d="M56.396,26.775c1.363-3.053,2.104-7.011,2.104-10.482c0-9.335-4.723-14.768-13.379-14.768    c-8.897,0-14.104,6.896-14.104,15.989c0,9.01,4.176,16.745,11.063,20.268c-2.896,5.84-6.583,11.147-10.425,15.025    C24.68,44.307,18.377,33,15.789,11H5.5c4.754,37,18.92,48.429,22.666,50.683c2.119,1.281,3.944,1.14,5.879,0.039    c3.043-1.744,11.927-10.987,16.987-21.771C53.156,39.945,56,39.659,58,39.079v-7.256c-1,0.363-2.813,0.524-4.168,0.524    c-7.627,0-13.375-5.373-13.375-14.711c0-4.577,1.816-6.958,4.299-6.958c2.364,0,3.968,2.137,3.968,6.47    c0,2.466-0.641,5.164-1.123,6.763C47.601,23.911,49.967,28.044,56.396,26.775z" fill="#3AD69E"/></g><path d="M40.582,17.636c0-4.577,1.754-6.958,4.236-6.958c2.364,0,3.937,2.137,3.937,6.47   c0,2.466-0.656,5.164-1.139,6.763c0,0,2.351,4.133,8.779,2.864c1.363-3.053,2.104-7.011,2.104-10.482   c0-9.335-4.723-14.768-13.379-14.768c-8.897,0-14.104,6.896-14.104,15.989c0,9.01,4.176,16.745,11.063,20.268   c-2.527,5.102-5.661,9.671-8.976,13.332c-2.479,3.245-5.591,5.839-8.85,7.442c1.616,1.574,3.087,2.63,3.91,3.126   c2.119,1.281,3.944,1.14,5.879,0.039c3.043-1.744,11.927-10.987,16.987-21.771C53.156,39.945,56,39.659,58,39.079v-7.256   c-1,0.363-2.813,0.524-4.168,0.524C46.205,32.347,40.582,26.974,40.582,17.636z" fill="#2DB487"/><path d="M58,39.079v-7.256c-1,0.363-2.813,0.524-4.168,0.524c-7.627,0-13.25-5.373-13.25-14.711   c0-4.577,1.691-6.958,4.174-6.958c2.364,0,3.968,2.137,3.968,6.47c0,2.466-0.641,5.164-1.123,6.763c0,0,2.358,4.133,8.787,2.864   c1.363-3.053,2.108-7.011,2.108-10.482c0-9.335-4.721-14.768-13.377-14.768c-8.897,0-14.103,6.896-14.103,15.989   c0,8.961,4.136,16.659,10.958,20.208c0.799,0.271,1.609,0.522,2.441,0.745c3.233,0.865,6.193,1.283,9.284,1.311   C55.159,39.65,57,39.432,58,39.079z" fill="#3AD69E"/><path d="M55.049,5.4c-6.705-4.683-12.616,2.698-13.474,7.38c0.755-1.388,1.89-2.102,3.243-2.102   c2.364,0,3.937,2.137,3.937,6.47c0,2.466-0.656,5.164-1.139,6.763c0,0,2.351,4.133,8.779,2.864   c1.363-3.053,2.104-7.011,2.104-10.482C58.5,11.62,57.317,7.925,55.049,5.4z" fill="#2DB487"/><g><path d="M42.073,11.999c2.935-3.703,9.525-6.484,15.106-3.162c-0.547-1.311-1.256-2.463-2.131-3.437    c-6.705-4.683-12.616,2.698-13.474,7.38c0.166-0.307,0.355-0.575,0.558-0.817C42.114,11.977,42.095,11.986,42.073,11.999z" fill="#159B81"/></g><path d="M44.416,38.467c-0.832-0.223-1.536-0.414-2.335-0.685c-3.191-1.658-6.009-4.651-7.874-7.652l0,0   c2.14,3.719,4.635,5.994,7.874,7.652c-0.619,1.251-1.277,2.394-1.964,3.575c0.88,0.099,1.794,0.192,2.729,0.192   c3.237,0,6.18-0.606,8.422-1.626c0.004-0.012,0.01-0.012,0.014-0.022c0.018,0,0.037,0.004,0.052,0.003   c0.158-0.071,0.322-0.139,0.473-0.216C49.386,39.528,46.908,39.135,44.416,38.467z" fill="#159B81"/></g></svg>