<?xml version="1.0" encoding="utf-8"?>
<!-- Generator: Adobe Illustrator 23.0.2, SVG Export Plug-In . SVG Version: 6.00 Build 0)  -->
<svg version="1.1" id="Слой_1" xmlns="http://www.w3.org/2000/svg" xmlns:xlink="http://www.w3.org/1999/xlink" x="0px" y="0px"
	 viewBox="0 0 73 16" style="enable-background:new 0 0 73 16;" xml:space="preserve">
<style type="text/css">
	.st0{fill:none;}
	.st1{fill:#F7C726;}
	.st2{fill:#FCE7D0;}
	.st3{fill:#F4C7AD;}
	.st4{fill:#5A150B;}
	.st5{font-family:'MVBoli';}
	.st6{font-size:8.2794px;}
</style>
<title>Gestures</title>
<circle class="st0" cx="7.99" cy="8.3" r="7.5"/>
<path class="st0" d="M11.36,9.62v0.76c0,1.28-1.61,2.29-3.44,2.29H7.78c-0.92,0-1.7-0.34-2.24-0.89c0.44,1.22,1.6,2.03,2.89,2.02
	h0.14c1.83,0,3.34-1.08,3.34-2.36V8.95C11.92,9.32,11.64,9.61,11.36,9.62z"/>
<path class="st0" d="M11.36,7.24v0.65c0,0.38-0.47,0.68-0.84,0.68V9c0,0.39,0.31,0.7,0.7,0.7c0.39,0,0.7-0.31,0.7-0.7V7.92
	C11.92,7.55,11.64,7.24,11.36,7.24z"/>
<path class="st1" d="M8.25,8.57L8.2,8.54C8.09,8.48,7.97,8.43,7.84,8.39v0.06H7.9c0.12,0,0.26,0.07,0.4,0.08
	C8.28,8.52,8.26,8.57,8.25,8.57z"/>
<path class="st0" d="M9.52,3.87C9.38,3.85,9.24,3.88,9.11,3.95c0.1,0.14,0.14,0.3,0.12,0.47L8.81,6.18C8.5,6.25,8.27,6.52,8.26,6.83
	v1.75c0.27,0.02,0.54,0.07,0.81,0.16l0.1,0.02c0.02,0.01-0.06,0.02,0.12,0.03V7.04c0-0.32,0.17-0.59,0.47-0.66l0.38-1.76
	C10.17,4.25,9.9,3.91,9.52,3.87z"/>
<path class="st2" d="M11.23,6.7v1.08c0,0.38-0.3,0.68-0.68,0.68s-0.68-0.3-0.68-0.68V6.7c0-0.38,0.3-0.68,0.68-0.68
	S11.23,6.33,11.23,6.7z"/>
<path class="st2" d="M9.03,5.53c0.05-0.01,0.11-0.02,0.16-0.02c0.38,0,0.68,0.3,0.68,0.68v1.7c0,0.37-0.3,0.68-0.68,0.68
	C9.1,8.56,9.02,8.54,8.93,8.53C8.93,8.19,8.71,8.04,8.51,7.95V6.19C8.51,5.88,8.73,5.61,9.03,5.53z"/>
<path class="st2" d="M8.51,6.19v1.76L8.45,7.92L8.41,7.9C8.09,7.78,7.59,7.72,7.21,7.72H7.16L7.15,7.4l0.93-3.78
	c0.05-0.37,0.39-0.63,0.76-0.59c0.37,0.05,0.63,0.38,0.59,0.74l-0.4,1.76C8.73,5.61,8.51,5.88,8.51,6.19z"/>
<path class="st2" d="M7.15,7.4l0.01,0.32C6.62,7.7,6.09,7.87,5.66,8.18L4.77,3.96L4.8,4.04C4.71,3.67,4.94,3.31,5.31,3.22
	c0.36-0.08,0.72,0.13,0.81,0.49L7.15,7.4z"/>
<path class="st2" d="M9.19,8.57c0.37,0,0.68-0.3,0.68-0.68c0,0.38,0.3,0.68,0.68,0.68s0.68-0.3,0.68-0.68v2.49
	c0,1.28-1.46,2.34-3.26,2.32H7.83c-1.76,0-2.99-1.41-2.99-2.84V9.75c0.01-0.62,0.31-1.21,0.82-1.57C6.1,7.87,6.62,7.7,7.16,7.72
	h0.05C7.59,7.72,8.08,7.78,8.41,7.9l0.04,0.02l0.06,0.03c0.2,0.09,0.42,0.24,0.42,0.58C9.02,8.55,9.11,8.56,9.19,8.57z"/>
<path class="st3" d="M10.56,8.57c-0.36,0-0.65-0.3-0.65-0.67c0,0,0-0.01,0-0.01c0,0.3-0.25,0.56-0.44,0.65v1.85
	c0,1.05-1.02,1.93-2.36,2.21c0.23,0.05,0.47,0.08,0.71,0.07h0.14c1.8,0,3.29-1.01,3.29-2.29V7.89C11.25,8.27,10.94,8.57,10.56,8.57z
	"/>
<path class="st3" d="M11.23,6.81v1.08c0,0.38-0.3,0.68-0.68,0.68s-0.68-0.3-0.68-0.68V6.81c0-0.38,0.3-0.68,0.68-0.68
	S11.23,6.44,11.23,6.81z"/>
<path class="st4" d="M10.55,8.71c-0.45,0-0.82-0.37-0.82-0.82c0-0.08,0.06-0.14,0.14-0.14s0.14,0.06,0.14,0.14
	c0,0.3,0.24,0.54,0.54,0.54s0.54-0.24,0.54-0.54c0-0.08,0.06-0.14,0.14-0.14s0.14,0.06,0.14,0.14C11.37,8.34,11,8.71,10.55,8.71z"/>
<path class="st3" d="M9.18,5.51c-0.05,0-0.1,0.01-0.16,0.02h0.01c0.31,0.07,0.52,0.34,0.53,0.66v1.7C9.57,8.2,9.36,8.47,9.05,8.55
	C9.1,8.56,9.15,8.57,9.19,8.57c0.37,0,0.67-0.3,0.67-0.67c0,0,0-0.01,0-0.01v-1.7C9.86,5.82,9.56,5.52,9.18,5.51
	C9.19,5.51,9.19,5.51,9.18,5.51z"/>
<path class="st3" d="M5.68,3.85l1.03,3.69v0.21C6.86,7.73,7,7.72,7.15,7.72l0-0.32L6.12,3.71C6.03,3.34,5.66,3.12,5.3,3.21
	C5.21,3.23,5.12,3.27,5.04,3.33C5.35,3.34,5.61,3.56,5.68,3.85z"/>
<path class="st4" d="M5.52,8.21L4.64,3.99c-0.01-0.02-0.01-0.05,0-0.07C4.61,3.46,4.96,3.08,5.42,3.06C5.81,3.04,6.16,3.3,6.25,3.68
	l0.89,3.17l0.8-3.26C8,3.14,8.4,2.83,8.85,2.88C9.3,2.93,9.62,3.34,9.57,3.79c0,0,0,0.01,0,0.01l-0.4,1.78L8.89,5.52l0.4-1.77
	c0.03-0.3-0.19-0.56-0.48-0.59C8.67,3.15,8.53,3.19,8.42,3.27c-0.11,0.09-0.18,0.22-0.2,0.36c0,0.01,0,0.01,0,0.02L7.29,7.43
	c-0.02,0.08-0.1,0.12-0.17,0.1c-0.05-0.01-0.09-0.05-0.1-0.1L5.98,3.74c-0.07-0.29-0.36-0.47-0.65-0.4c0,0,0,0,0,0
	C5.04,3.42,4.86,3.71,4.93,4c0,0,0,0,0,0c0,0.02,0,0.04,0,0.05l0.86,4.09L5.52,8.21z"/>
<path class="st4" d="M9.19,8.71C9.11,8.7,9.02,8.69,8.94,8.67L8.91,8.66l0.05-0.28l0.03,0.01c0.11,0.02,0.18,0.03,0.2,0.04
	c0.3,0,0.54-0.24,0.54-0.54v-1.7c0-0.3-0.24-0.54-0.54-0.54c-0.04,0-0.09,0-0.13,0.01C8.82,5.72,8.65,5.94,8.65,6.19v1.76H8.37V6.19
	c0-0.38,0.26-0.71,0.63-0.8c0.06-0.02,0.12-0.02,0.19-0.02C9.64,5.37,10,5.74,10,6.19v1.7C10,8.34,9.64,8.71,9.19,8.71z"/>
<path class="st4" d="M8.03,12.84h-0.2c-1.93,0-3.13-1.55-3.13-2.98V9.75c0-0.67,0.33-1.3,0.87-1.69c0.46-0.33,1.02-0.5,1.58-0.49
	h0.05c0.38,0.01,0.9,0.06,1.24,0.19l0.02,0.01l0.04,0.02l0.06,0.03c0.3,0.11,0.5,0.39,0.51,0.7c0.01,0.45-0.35,0.83-0.81,0.83
	L7.48,9.41C7.24,9.64,7,9.87,6.76,10.1c-0.06,0.05-0.15,0.05-0.2-0.01C6.5,10.04,6.51,9.95,6.56,9.9l0,0
	c0.26-0.24,0.51-0.48,0.76-0.72c0.02-0.02,0.05-0.04,0.09-0.04l0.84-0.07c0.3,0,0.54-0.25,0.54-0.55c0,0,0,0,0,0
	c0-0.21-0.11-0.35-0.34-0.45L8.39,8.04L8.38,8.04L8.35,8.02c-0.32-0.11-0.8-0.16-1.14-0.16H7.16C6.65,7.85,6.15,8,5.74,8.29
	C5.27,8.63,4.99,9.17,4.98,9.75v0.11c0,1.61,1.47,2.7,2.85,2.7h0.14c1,0.01,1.95-0.33,2.53-0.91c0.38-0.38,0.58-0.81,0.58-1.27V6.81
	c0-0.3-0.24-0.54-0.54-0.54s-0.54,0.24-0.54,0.54c0,0.08-0.06,0.14-0.14,0.14S9.72,6.89,9.72,6.81c0-0.45,0.37-0.82,0.82-0.82
	s0.82,0.37,0.82,0.82v3.57c0,0.53-0.23,1.04-0.66,1.47C10.08,12.47,9.08,12.84,8.03,12.84z"/>
<text transform="matrix(0.6953 0 0 1 12.3971 11.7527)" class="st3 st5 st6">Front-end Developer</text>
</svg>
