<?xml version="1.0" encoding="utf-8"?>
<!-- Generator: Adobe Illustrator 23.0.2, SVG Export Plug-In . SVG Version: 6.00 Build 0)  -->
<svg version="1.1" id="Capa_1" xmlns="http://www.w3.org/2000/svg" xmlns:xlink="http://www.w3.org/1999/xlink" x="0px" y="0px"
	 viewBox="0 0 92.8 92.8" style="enable-background:new 0 0 92.8 92.8;" xml:space="preserve">
<style type="text/css">
	.st0{fill:#F9F980;}
</style>
<g>
	<g>
		<path class="st0" d="M77.4,65.1V52.9H73v9.7c0,1.5-1.2,2.8-2.8,2.8H15.1c-1.5,0-2.8-1.2-2.8-2.8V29.6c0-1.5,1.2-2.8,2.8-2.8h31.5
			V24H11.1c-1.7,0-3.2,1.4-3.2,3.2v19v19v3.2L0,77.7c0,2.6,2.1,4.7,4.7,4.7h75.9c2.6,0,4.7-2.1,4.7-4.7l-7.9-9.5L77.4,65.1
			L77.4,65.1z M49,80.9H36.4c-0.4,0-0.8-0.4-0.8-0.8s0.4-0.8,0.8-0.8H49c0.4,0,0.8,0.4,0.8,0.8C49.8,80.5,49.4,80.9,49,80.9z
			 M29.6,77.7l2.4-2.9h21.2l2.4,2.9C55.7,77.7,29.6,77.7,29.6,77.7z"/>
		<g>
			<rect x="37.5" y="47.3" class="st0" width="6.6" height="6.6"/>
			<rect x="41.6" y="38.2" class="st0" width="6.6" height="6.6"/>
			<rect x="48.1" y="46.5" class="st0" width="6.6" height="6.6"/>
			<rect x="53.4" y="35.5" class="st0" width="7.8" height="7.8"/>
			<rect x="64.4" y="11.5" class="st0" width="7.8" height="7.8"/>
			<rect x="50.2" y="25.7" class="st0" width="7.8" height="7.8"/>
			<rect x="62.5" y="22.3" class="st0" width="11.2" height="11.2"/>
			<rect x="70.9" y="35.8" class="st0" width="13.5" height="13.5"/>
			<rect x="76" y="10.4" class="st0" width="16.8" height="16.8"/>
			<rect x="60.5" y="44.3" class="st0" width="7.8" height="7.8"/>
		</g>
	</g>
</g>
</svg>
