<?xml version="1.0" encoding="utf-8"?>
<!-- Generator: Adobe Illustrator 23.0.2, SVG Export Plug-In . SVG Version: 6.00 Build 0)  -->
<svg version="1.1" id="Слой_1" xmlns="http://www.w3.org/2000/svg" xmlns:xlink="http://www.w3.org/1999/xlink" x="0px" y="0px"
	 viewBox="0 0 16 16" style="enable-background:new 0 0 16 16;" xml:space="preserve">
<style type="text/css">
	.st0{fill:#FDE45C;}
	.st1{fill:#F7C726;}
	.st2{fill:#FCE7D0;}
	.st3{fill:#F4C7AD;}
	.st4{fill:#5A150B;}
</style>
<title>Gestures</title>
<circle class="st0" cx="7.9" cy="7.8" r="7.5"/>
<path class="st1" d="M11.3,9.1v0.8c0,1.3-1.6,2.3-3.4,2.3H7.7c-0.9,0-1.7-0.3-2.2-0.9c0.4,1.2,1.6,2,2.9,2h0.1
	c1.8,0,3.3-1.1,3.3-2.4V8.4C11.9,8.8,11.6,9.1,11.3,9.1z"/>
<path class="st1" d="M11.3,6.7v0.7c0,0.4-0.5,0.7-0.8,0.7v0.4c0,0.4,0.3,0.7,0.7,0.7c0.4,0,0.7-0.3,0.7-0.7V7.4
	C11.9,7,11.6,6.7,11.3,6.7z"/>
<path class="st1" d="M8.2,8.1L8.2,8.1C8,8,7.9,7.9,7.8,7.9v0.1h0.1C8,7.9,8.1,8,8.2,8.1C8.2,8,8.2,8.1,8.2,8.1z"/>
<path class="st1" d="M9.5,3.3c-0.1,0-0.3,0-0.4,0.1c0.1,0.1,0.1,0.3,0.1,0.5L8.8,5.7C8.4,5.7,8.2,6,8.2,6.3v1.7
	c0.3,0,0.5,0.1,0.8,0.2l0.1,0c0,0-0.1,0,0.1,0V6.5c0-0.3,0.2-0.6,0.5-0.7l0.4-1.8C10.1,3.7,9.8,3.4,9.5,3.3z"/>
<path class="st2" d="M11.2,6.2v1.1c0,0.4-0.3,0.7-0.7,0.7S9.8,7.6,9.8,7.3V6.2c0-0.4,0.3-0.7,0.7-0.7S11.2,5.8,11.2,6.2z"/>
<path class="st2" d="M9,5C9,5,9.1,5,9.1,5c0.4,0,0.7,0.3,0.7,0.7v1.7c0,0.4-0.3,0.7-0.7,0.7C9.1,8,9,8,8.9,8c0-0.3-0.2-0.5-0.4-0.6
	V5.7C8.4,5.4,8.7,5.1,9,5z"/>
<path class="st2" d="M8.4,5.7v1.8l-0.1,0l0,0C8,7.3,7.5,7.2,7.2,7.2H7.1l0-0.3L8,3.1c0.1-0.4,0.4-0.6,0.8-0.6c0.4,0,0.6,0.4,0.6,0.7
	L9,5C8.7,5.1,8.4,5.4,8.4,5.7z"/>
<path class="st2" d="M7.1,6.9l0,0.3C6.6,7.2,6,7.3,5.6,7.7L4.7,3.4l0,0.1C4.7,3.2,4.9,2.8,5.3,2.7C5.6,2.6,6,2.8,6.1,3.2L7.1,6.9z"
	/>
<path class="st2" d="M9.1,8.1c0.4,0,0.7-0.3,0.7-0.7c0,0.4,0.3,0.7,0.7,0.7s0.7-0.3,0.7-0.7v2.5c0,1.3-1.5,2.3-3.3,2.3H7.8
	c-1.8,0-3-1.4-3-2.8V9.2c0-0.6,0.3-1.2,0.8-1.6c0.4-0.3,1-0.5,1.5-0.5h0.1c0.4,0,0.9,0.1,1.2,0.2l0.1,0l0.1,0C8.7,7.5,8.9,7.7,8.9,8
	C9,8,9.1,8,9.1,8.1z"/>
<path class="st3" d="M10.5,8.1c-0.4,0-0.6-0.3-0.6-0.7v0c0,0.3-0.3,0.6-0.4,0.6v1.9c0,1.1-1,1.9-2.4,2.2c0.2,0.1,0.5,0.1,0.7,0.1
	h0.1c1.8,0,3.3-1,3.3-2.3V7.4C11.2,7.8,10.9,8.1,10.5,8.1z"/>
<path class="st3" d="M11.2,6.3v1.1c0,0.4-0.3,0.7-0.7,0.7S9.8,7.8,9.8,7.4V6.3c0-0.4,0.3-0.7,0.7-0.7C10.9,5.6,11.2,5.9,11.2,6.3z"
	/>
<path class="st4" d="M10.5,8.2c-0.4,0-0.8-0.4-0.8-0.8c0-0.1,0.1-0.1,0.1-0.1s0.1,0.1,0.1,0.2c0,0.3,0.2,0.5,0.5,0.5S11,7.7,11,7.4
	c0-0.1,0.1-0.1,0.1-0.1s0.1,0.1,0.1,0.1C11.3,7.8,10.9,8.2,10.5,8.2z"/>
<path class="st3" d="M9.1,5C9.1,5,9,5,9,5h0c0.3,0.1,0.5,0.3,0.5,0.7v1.7C9.5,7.7,9.3,8,9,8c0.1,0,0.1,0,0.1,0
	c0.4,0,0.7-0.3,0.7-0.7v0V5.7C9.8,5.3,9.5,5,9.1,5L9.1,5z"/>
<path class="st3" d="M5.6,3.3l1,3.7v0.2c0.2,0,0.3,0,0.4,0V6.9l-1-3.7C6,2.8,5.6,2.6,5.2,2.7C5.2,2.7,5.1,2.8,5,2.8
	C5.3,2.8,5.6,3,5.6,3.3z"/>
<path class="st4" d="M5.5,7.7L4.6,3.5c0,0,0,0,0-0.1c0-0.5,0.3-0.8,0.8-0.9c0.4,0,0.7,0.2,0.8,0.6l0.9,3.2l0.8-3.3
	c0.1-0.5,0.5-0.8,0.9-0.7s0.8,0.5,0.7,0.9v0L9.1,5.1L8.8,5l0.4-1.8c0-0.3-0.2-0.6-0.5-0.6c-0.1,0-0.3,0-0.4,0.1
	C8.3,2.8,8.2,3,8.2,3.1c0,0,0,0,0,0L7.2,6.9C7.2,7,7.1,7,7.1,7C7,7,7,7,7,6.9l-1-3.7C5.9,2.9,5.6,2.8,5.3,2.8l0,0
	C5,2.9,4.8,3.2,4.9,3.5l0,0c0,0,0,0,0,0l0.9,4.1L5.5,7.7z"/>
<path class="st4" d="M9.1,8.2c-0.1,0-0.2,0-0.3,0h0l0-0.3l0,0c0.1,0,0.2,0,0.2,0c0.3,0,0.5-0.2,0.5-0.5V5.7c0-0.3-0.2-0.5-0.5-0.5
	c0,0-0.1,0-0.1,0C8.8,5.2,8.6,5.4,8.6,5.7v1.8H8.3V5.7c0-0.4,0.3-0.7,0.6-0.8c0.1,0,0.1,0,0.2,0c0.4,0,0.8,0.4,0.8,0.8v1.7
	C9.9,7.8,9.6,8.2,9.1,8.2z"/>
<path class="st4" d="M8,12.3H7.8c-1.9,0-3.1-1.6-3.1-3V9.2c0-0.7,0.3-1.3,0.9-1.7C6,7.2,6.5,7,7.1,7h0.1c0.4,0,0.9,0.1,1.2,0.2l0,0
	l0,0l0.1,0C8.8,7.4,9,7.7,9,8c0,0.4-0.4,0.8-0.8,0.8L7.4,8.9C7.2,9.1,6.9,9.4,6.7,9.6c-0.1,0.1-0.1,0.1-0.2,0
	c-0.1-0.1-0.1-0.1,0-0.2l0,0C6.8,9.1,7,8.9,7.3,8.7c0,0,0.1,0,0.1,0l0.8-0.1c0.3,0,0.5-0.3,0.5-0.6l0,0c0-0.2-0.1-0.3-0.3-0.4
	l-0.1,0l0,0l0,0C8,7.4,7.5,7.3,7.2,7.3H7.1c-0.5,0-1,0.1-1.4,0.4C5.2,8.1,4.9,8.6,4.9,9.2v0.1c0,1.6,1.5,2.7,2.8,2.7h0.1
	c1,0,1.9-0.3,2.5-0.9c0.4-0.4,0.6-0.8,0.6-1.3V6.3c0-0.3-0.2-0.5-0.5-0.5S9.9,6,9.9,6.3c0,0.1-0.1,0.1-0.1,0.1S9.7,6.4,9.7,6.3
	c0-0.4,0.4-0.8,0.8-0.8s0.8,0.4,0.8,0.8v3.6c0,0.5-0.2,1-0.7,1.5C10,12,9,12.3,8,12.3z"/>
</svg>
